<mxfile host="app.diagrams.net" modified="2024-03-16T11:00:21.471Z" agent="Mozilla/5.0 (Windows NT 10.0; Win64; x64; rv:123.0) Gecko/20100101 Firefox/123.0" etag="HJtcwVmAbvVBF3AWdYfg" version="24.0.7" type="github">
  <diagram name="Seite-1" id="9qQ8Hys5Osq0LkdtGJnY">
    <mxGraphModel dx="1834" dy="1196" grid="1" gridSize="10" guides="1" tooltips="1" connect="1" arrows="1" fold="1" page="0" pageScale="1" pageWidth="827" pageHeight="1169" math="0" shadow="0">
      <root>
        <mxCell id="0" />
        <mxCell id="1" parent="0" />
        <mxCell id="i57vDh5SImuFaR49Ku6H-5" value="" style="endArrow=none;dashed=1;html=1;strokeWidth=1;rounded=0;fontSize=12;startSize=8;endSize=8;curved=1;strokeColor=#000000;dashPattern=12 12;" edge="1" parent="1" source="i57vDh5SImuFaR49Ku6H-18" target="i57vDh5SImuFaR49Ku6H-6">
          <mxGeometry width="50" height="50" relative="1" as="geometry">
            <mxPoint x="-200" y="415" as="sourcePoint" />
            <mxPoint x="-210.5" y="5" as="targetPoint" />
          </mxGeometry>
        </mxCell>
        <mxCell id="i57vDh5SImuFaR49Ku6H-6" value=":Backup Server App" style="text;html=1;align=center;verticalAlign=middle;whiteSpace=wrap;rounded=0;fontSize=16;strokeColor=default;spacingLeft=4;spacingRight=4;" vertex="1" parent="1">
          <mxGeometry x="-280" y="-80" width="160" height="30" as="geometry" />
        </mxCell>
        <mxCell id="i57vDh5SImuFaR49Ku6H-8" value=":Backup Client App" style="text;html=1;align=center;verticalAlign=middle;whiteSpace=wrap;rounded=0;fontSize=16;strokeColor=default;spacingLeft=4;spacingRight=4;" vertex="1" parent="1">
          <mxGeometry x="80" y="-80" width="160" height="30" as="geometry" />
        </mxCell>
        <mxCell id="i57vDh5SImuFaR49Ku6H-11" value="request_auth_token" style="endArrow=blockThin;html=1;rounded=0;fontSize=12;startSize=8;endSize=8;curved=1;endFill=1;verticalAlign=bottom;entryX=0;entryY=0;entryDx=0;entryDy=0;exitX=1;exitY=0;exitDx=0;exitDy=0;" edge="1" parent="1" source="i57vDh5SImuFaR49Ku6H-18" target="i57vDh5SImuFaR49Ku6H-13">
          <mxGeometry width="50" height="50" relative="1" as="geometry">
            <mxPoint x="-200" y="40" as="sourcePoint" />
            <mxPoint x="160" y="40" as="targetPoint" />
          </mxGeometry>
        </mxCell>
        <mxCell id="i57vDh5SImuFaR49Ku6H-12" value="" style="endArrow=none;dashed=1;html=1;strokeWidth=1;rounded=0;fontSize=12;startSize=8;endSize=8;curved=1;strokeColor=#000000;dashPattern=12 12;" edge="1" parent="1" source="i57vDh5SImuFaR49Ku6H-13">
          <mxGeometry width="50" height="50" relative="1" as="geometry">
            <mxPoint x="159.5" y="415" as="sourcePoint" />
            <mxPoint x="159.5" y="-50" as="targetPoint" />
          </mxGeometry>
        </mxCell>
        <mxCell id="i57vDh5SImuFaR49Ku6H-14" value="" style="endArrow=none;dashed=1;html=1;strokeWidth=1;rounded=0;fontSize=12;startSize=8;endSize=8;curved=1;strokeColor=#000000;dashPattern=12 12;" edge="1" parent="1" target="i57vDh5SImuFaR49Ku6H-13">
          <mxGeometry width="50" height="50" relative="1" as="geometry">
            <mxPoint x="160" y="170" as="sourcePoint" />
            <mxPoint x="159.5" y="-50" as="targetPoint" />
          </mxGeometry>
        </mxCell>
        <mxCell id="i57vDh5SImuFaR49Ku6H-16" value="respond_auth_token" style="endArrow=none;html=1;rounded=0;fontSize=12;startSize=8;endSize=8;curved=1;endFill=0;verticalAlign=top;entryX=0;entryY=1;entryDx=0;entryDy=0;startArrow=blockThin;startFill=1;dashed=1;" edge="1" parent="1" target="i57vDh5SImuFaR49Ku6H-13">
          <mxGeometry width="50" height="50" relative="1" as="geometry">
            <mxPoint x="-190" y="99" as="sourcePoint" />
            <mxPoint x="160" y="99" as="targetPoint" />
          </mxGeometry>
        </mxCell>
        <mxCell id="i57vDh5SImuFaR49Ku6H-19" value="" style="endArrow=none;dashed=1;html=1;strokeWidth=1;rounded=0;fontSize=12;startSize=8;endSize=8;curved=1;strokeColor=#000000;dashPattern=12 12;" edge="1" parent="1" target="i57vDh5SImuFaR49Ku6H-18">
          <mxGeometry width="50" height="50" relative="1" as="geometry">
            <mxPoint x="-200" y="170" as="sourcePoint" />
            <mxPoint x="-200" y="-50" as="targetPoint" />
          </mxGeometry>
        </mxCell>
        <mxCell id="i57vDh5SImuFaR49Ku6H-18" value="" style="rounded=0;whiteSpace=wrap;html=1;fillColor=#f5f5f5;fontColor=#333333;strokeColor=#666666;" vertex="1" parent="1">
          <mxGeometry x="-210" y="40" width="20" height="60" as="geometry" />
        </mxCell>
        <mxCell id="i57vDh5SImuFaR49Ku6H-13" value="" style="rounded=0;whiteSpace=wrap;html=1;fillColor=#f5f5f5;fontColor=#333333;strokeColor=#666666;" vertex="1" parent="1">
          <mxGeometry x="150" y="40" width="20" height="60" as="geometry" />
        </mxCell>
      </root>
    </mxGraphModel>
  </diagram>
</mxfile>
